<svg width="205" height="205" viewBox="0 0 205 205" fill="none" xmlns="http://www.w3.org/2000/svg">
<rect x="0.967377" y="102.5" width="143.589" height="143.589" rx="20" transform="rotate(-45 0.967377 102.5)" fill="#423C8C"/>
<path d="M113.355 41.0763C107.497 35.2185 97.9993 35.2185 92.1414 41.0763L40.7756 92.4422C34.9006 98.3172 34.9203 107.849 40.8196 113.699L91.5498 164.011C97.4147 169.828 106.878 169.808 112.719 163.968L118.51 158.177C120.462 156.224 120.462 153.058 118.51 151.106L101.511 134.107C97.6058 130.202 97.6058 123.87 101.511 119.965L115.342 106.134C117.295 104.181 117.295 101.015 115.342 99.0625L105.498 89.2178C103.545 87.2651 100.379 87.2651 98.4265 89.2178L84.1256 103.519C82.173 105.471 79.0072 105.471 77.0545 103.519L76.8001 103.264C74.8475 101.312 74.8475 98.1457 76.8001 96.1931L119.1 53.893C121.053 51.9404 121.053 48.7746 119.1 46.822L113.355 41.0763Z" fill="white"/>
<path d="M112.435 75.2096L126.426 61.2185C128.378 59.2659 131.544 59.2659 133.497 61.2185L164.268 91.9901C170.126 97.848 170.126 107.345 164.268 113.203L133.071 144.401C131.118 146.353 127.952 146.353 126 144.401L112.082 130.483C110.129 128.53 110.129 125.364 112.082 123.412L129.288 106.205C131.241 104.253 131.241 101.087 129.288 99.1341L112.435 82.2807C110.482 80.328 110.482 77.1622 112.435 75.2096Z" fill="#24CA7A"/>
</svg>
